<svg xmlns="http://www.w3.org/2000/svg" viewBox="0 0 560 460" width="560" height="460" role="img" aria-labelledby="t">
  <title id="t">Ilustração de site profissional responsivo, no computador e no celular, aparecendo na busca do Google em Uberlândia</title>
  <defs>
    <radialGradient id="glow" cx="50%" cy="45%" r="55%">
      <stop offset="0" stop-color="#10A98E" stop-opacity=".28"/>
      <stop offset="1" stop-color="#10A98E" stop-opacity="0"/>
    </radialGradient>
    <linearGradient id="img" x1="0" y1="0" x2="1" y2="1">
      <stop offset="0" stop-color="#14C7A6"/>
      <stop offset="1" stop-color="#0B5F52"/>
    </linearGradient>
    <filter id="sh" x="-20%" y="-20%" width="140%" height="150%">
      <feDropShadow dx="0" dy="14" stdDeviation="14" flood-color="#000" flood-opacity=".45"/>
    </filter>
  </defs>
  <style>text{font-family:'Segoe UI',Roboto,Arial,sans-serif}</style>

  <circle cx="280" cy="210" r="250" fill="url(#glow)"/>

  <!-- Navegador -->
  <g filter="url(#sh)">
    <rect x="20" y="36" width="440" height="300" rx="14" fill="#101B2E" stroke="#ffffff" stroke-opacity=".12"/>
    <path d="M20 50a14 14 0 0 1 14-14h412a14 14 0 0 1 14 14v18H20z" fill="#16212F"/>
    <circle cx="40" cy="52" r="4.5" fill="#3A4757"/><circle cx="54" cy="52" r="4.5" fill="#3A4757"/><circle cx="68" cy="52" r="4.5" fill="#3A4757"/>
    <rect x="150" y="44" width="200" height="16" rx="8" fill="#0B1421"/>
    <text x="250" y="56" font-size="10" fill="#8496AA" text-anchor="middle">suaempresa.com.br</text>

    <!-- nav -->
    <rect x="40" y="86" width="18" height="18" rx="5" fill="#10A98E"/>
    <rect x="64" y="91" width="56" height="8" rx="4" fill="#E8EEF5"/>
    <rect x="290" y="91" width="34" height="7" rx="3.5" fill="#3A4757"/>
    <rect x="332" y="91" width="34" height="7" rx="3.5" fill="#3A4757"/>
    <rect x="376" y="85" width="64" height="20" rx="7" fill="#10A98E"/>

    <!-- hero -->
    <rect x="40" y="130" width="190" height="16" rx="5" fill="#fff"/>
    <rect x="40" y="154" width="150" height="16" rx="5" fill="#fff"/>
    <rect x="40" y="154" width="70" height="16" rx="5" fill="#10A98E"/>
    <rect x="40" y="182" width="200" height="7" rx="3.5" fill="#3A4757"/>
    <rect x="40" y="195" width="170" height="7" rx="3.5" fill="#3A4757"/>
    <rect x="40" y="216" width="92" height="26" rx="8" fill="#10A98E"/>
    <rect x="140" y="216" width="70" height="26" rx="8" fill="none" stroke="#ffffff" stroke-opacity=".25"/>

    <rect x="262" y="124" width="178" height="120" rx="10" fill="url(#img)"/>
    <circle cx="400" cy="152" r="13" fill="#E8FFF9" fill-opacity=".85"/>
    <path d="M262 222l44-40 34 28 26-20 74 50v4a10 10 0 0 1-10 10H272a10 10 0 0 1-10-10z" fill="#0B1421" fill-opacity=".45"/>

    <!-- cards -->
    <rect x="40" y="262" width="126" height="56" rx="9" fill="#16212F" stroke="#ffffff" stroke-opacity=".07"/>
    <rect x="177" y="262" width="126" height="56" rx="9" fill="#16212F" stroke="#ffffff" stroke-opacity=".07"/>
    <rect x="314" y="262" width="126" height="56" rx="9" fill="#16212F" stroke="#ffffff" stroke-opacity=".07"/>
    <rect x="52" y="274" width="16" height="16" rx="4" fill="#10A98E" fill-opacity=".35"/>
    <rect x="189" y="274" width="16" height="16" rx="4" fill="#10A98E" fill-opacity=".35"/>
    <rect x="326" y="274" width="16" height="16" rx="4" fill="#10A98E" fill-opacity=".35"/>
    <rect x="52" y="298" width="80" height="6" rx="3" fill="#3A4757"/>
    <rect x="189" y="298" width="80" height="6" rx="3" fill="#3A4757"/>
    <rect x="326" y="298" width="80" height="6" rx="3" fill="#3A4757"/>
  </g>

  <!-- Celular -->
  <g filter="url(#sh)">
    <rect x="392" y="150" width="148" height="290" rx="24" fill="#0B1421" stroke="#ffffff" stroke-opacity=".2" stroke-width="2"/>
    <rect x="401" y="160" width="130" height="270" rx="17" fill="#101B2E"/>
    <rect x="445" y="166" width="42" height="8" rx="4" fill="#0B1421"/>
    <rect x="412" y="188" width="12" height="12" rx="3" fill="#10A98E"/>
    <rect x="490" y="190" width="30" height="8" rx="4" fill="#3A4757"/>
    <rect x="412" y="214" width="104" height="10" rx="4" fill="#fff"/>
    <rect x="412" y="230" width="80" height="10" rx="4" fill="#10A98E"/>
    <rect x="412" y="250" width="108" height="5" rx="2.5" fill="#3A4757"/>
    <rect x="412" y="260" width="90" height="5" rx="2.5" fill="#3A4757"/>
    <rect x="412" y="276" width="108" height="22" rx="7" fill="#10A98E"/>
    <rect x="412" y="308" width="108" height="64" rx="9" fill="url(#img)"/>
    <rect x="412" y="382" width="52" height="34" rx="7" fill="#16212F"/>
    <rect x="468" y="382" width="52" height="34" rx="7" fill="#16212F"/>
  </g>

  <!-- Card de busca local -->
  <g filter="url(#sh)">
    <rect x="34" y="352" width="330" height="88" rx="14" fill="#16212F" stroke="#10A98E" stroke-opacity=".45"/>
    <rect x="48" y="364" width="302" height="26" rx="13" fill="#0B1421"/>
    <circle cx="64" cy="377" r="6" fill="none" stroke="#7FE3D0" stroke-width="2"/>
    <path d="M68.5 381.5l4 4" stroke="#7FE3D0" stroke-width="2" stroke-linecap="round"/>
    <text x="80" y="381" font-size="11.5" fill="#CBD7E4">criação de sites uberlândia</text>
    <path d="M58 404c0 7 7 14 7 14s7-7 7-14a7 7 0 0 0-14 0z" fill="#10A98E"/>
    <circle cx="65" cy="404" r="2.6" fill="#0B1421"/>
    <text x="80" y="410" font-size="12" font-weight="700" fill="#fff">Sua Empresa</text>
    <text x="80" y="426" font-size="10.5" fill="#8496AA">Uberlândia, MG · Aberto agora</text>
    <rect x="290" y="402" width="58" height="22" rx="11" fill="#10A98E" fill-opacity=".16"/>
    <text x="319" y="417" font-size="10.5" font-weight="700" fill="#7FE3D0" text-anchor="middle">1º lugar</text>
  </g>
</svg>
